<?xml version="1.0" encoding="utf-8"?>
<!-- Generator: Adobe Illustrator 16.0.0, SVG Export Plug-In . SVG Version: 6.00 Build 0)  -->
<!DOCTYPE svg PUBLIC "-//W3C//DTD SVG 1.1//EN" "http://www.w3.org/Graphics/SVG/1.1/DTD/svg11.dtd">
<svg version="1.1" id="Layer_1" xmlns="http://www.w3.org/2000/svg" xmlns:xlink="http://www.w3.org/1999/xlink" x="0px" y="0px"
	 width="200px" height="200px" viewBox="0 0 200 200" enable-background="new 0 0 200 200" xml:space="preserve">
<path fill-rule="evenodd" clip-rule="evenodd" fill="#383838" d="M102.027,188.942c-23.169-0.386-46.252-1.436-68.747-7.866
	c-6.963-1.991-10.885-6.193-12.523-13.291c-7.192-31.171-8.141-62.636-5.114-94.349c1.156-12.109,3.142-24.074,5.25-36.045
	c1.356-7.701,5.398-12.505,12.581-15.273c17.804-6.86,36.437-9.17,55.274-9.901c23.729-0.921,47.275,0.594,70.15,7.716
	c3.165,0.985,6.244,2.263,9.315,3.522c5.357,2.195,8.443,6.276,9.593,11.895c9.023,44.102,9.817,88.202,0.439,132.393
	c-1.612,7.598-5.661,12.109-12.901,14.177c-19.067,5.444-38.641,6.679-58.321,7.019
	C105.359,188.968,103.693,188.942,102.027,188.942z"/>
</svg>
